<?xml version="1.0" standalone="no"?>
<!DOCTYPE svg PUBLIC "-//W3C//DTD SVG 20010904//EN"
 "http://www.w3.org/TR/2001/REC-SVG-20010904/DTD/svg10.dtd">
<svg version="1.0" xmlns="http://www.w3.org/2000/svg"
 width="260.000000pt" height="260.000000pt" viewBox="0 0 260.000000 260.000000"
 preserveAspectRatio="xMidYMid meet">
<metadata>
Created by potrace 1.14, written by Peter Selinger 2001-2017
</metadata>
<g transform="translate(0.000000,260.000000) scale(0.100000,-0.100000)"
fill="#000000" stroke="none">
<path d="M1636 2579 c-20 -10 -48 -29 -63 -41 -37 -32 -123 -120 -123 -127 0
-3 -11 -18 -25 -33 -14 -15 -26 -31 -27 -35 -1 -5 -16 -31 -35 -60 -18 -29
-33 -56 -33 -61 0 -24 -35 -35 -122 -38 -51 -1 -113 -6 -138 -9 -25 -3 -51 -7
-57 -7 -7 -1 -13 -4 -13 -8 0 -4 -6 -7 -12 -8 -17 -1 -39 -7 -63 -17 -73 -30
-124 -55 -141 -68 -101 -82 -157 -133 -185 -169 -19 -24 -39 -49 -46 -55 -13
-15 -39 -17 -47 -4 -8 13 -113 32 -194 35 -69 3 -171 -10 -182 -23 -3 -3 -14
-7 -25 -9 -33 -5 -86 -65 -95 -107 -8 -35 -6 -59 16 -157 4 -16 9 -28 13 -28
3 0 17 -20 31 -45 14 -25 28 -45 32 -45 5 0 8 -5 8 -11 0 -6 6 -16 13 -23 7
-8 29 -33 48 -56 18 -23 63 -73 100 -111 41 -43 65 -76 65 -91 1 -35 13 -170
18 -193 26 -128 115 -318 176 -380 67 -67 87 -85 98 -85 8 0 10 -5 6 -12 -5
-8 -2 -9 9 -5 10 4 20 0 26 -11 5 -9 13 -16 18 -15 4 0 24 -6 43 -14 19 -8 49
-18 65 -21 54 -10 270 -4 270 8 0 1 14 3 30 5 17 1 32 4 35 5 3 1 8 2 12 1 4
0 31 7 60 18 29 10 78 26 108 36 115 38 293 143 384 225 96 86 159 158 150
171 -4 7 -3 9 3 6 6 -4 18 4 27 18 9 14 13 25 9 25 -4 0 1 6 12 13 10 8 15 19
12 24 -4 6 0 13 8 17 8 3 15 12 15 21 0 8 5 15 11 15 5 0 7 5 4 10 -3 6 -1 10
4 10 6 0 10 3 9 7 -1 5 8 30 20 56 12 26 21 51 20 55 -1 4 2 18 6 32 24 89 24
218 1 335 -10 50 -20 95 -24 100 -3 6 -7 17 -8 26 -4 24 -78 165 -97 184 -9 9
-13 21 -10 27 4 7 2 8 -4 4 -13 -8 -14 -6 -16 81 0 35 1 63 4 63 8 0 -3 203
-15 270 -3 19 -7 53 -9 75 -6 65 -47 159 -85 192 -15 13 -28 23 -31 24 -3 0
-13 2 -22 4 -9 2 -33 -5 -52 -16z"/>
<path d="M2497 1053 c-18 -9 -25 -18 -20 -26 4 -7 9 -23 9 -37 4 -69 9 -100
16 -100 4 0 8 -13 8 -28 0 -15 5 -33 10 -38 6 -6 12 -26 14 -46 2 -19 5 -39 8
-44 13 -21 -2 -173 -21 -221 -11 -28 -17 -54 -13 -59 4 -4 2 -4 -5 0 -7 3 -14
-2 -18 -13 -3 -10 -19 -29 -35 -41 -16 -12 -27 -27 -23 -33 3 -6 1 -7 -5 -3
-6 4 -19 3 -29 -2 -61 -31 -111 -39 -118 -19 -2 7 -6 32 -9 57 -7 65 -16 91
-42 126 -13 17 -20 34 -17 38 4 3 -1 6 -11 6 -9 0 -14 5 -11 10 3 6 0 10 -8
10 -8 0 -20 6 -26 14 -11 14 -85 56 -97 56 -3 0 -2 -6 2 -12 5 -8 0 -7 -11 2
-10 8 -20 14 -21 13 -2 -1 -11 0 -20 4 -21 8 -196 -4 -203 -14 -8 -10 -131
-11 -131 -1 0 5 -7 8 -16 8 -9 0 -12 5 -8 13 5 8 4 9 -3 2 -6 -5 -16 -32 -23
-59 -8 -28 -28 -64 -47 -85 -18 -20 -33 -40 -33 -44 0 -5 -4 -5 -10 -2 -5 3
-10 2 -10 -3 0 -6 -18 -19 -40 -31 -22 -11 -40 -18 -40 -15 0 3 -7 -2 -16 -10
-17 -17 -19 -18 -169 -22 -55 -1 -101 -3 -102 -5 -2 -1 -7 -2 -12 -3 -5 0 -13
-4 -17 -8 -4 -5 -15 -8 -24 -8 -9 0 -26 -12 -39 -26 -40 -46 -51 -97 -30 -151
l10 -27 22 34 c12 19 32 43 44 53 13 10 30 25 38 33 8 9 15 12 15 8 0 -3 6 -2
13 3 6 6 36 9 65 8 88 -3 112 -52 30 -61 -58 -7 -99 -25 -134 -59 -19 -18 -34
-37 -35 -42 -8 -67 -5 -93 16 -117 14 -17 29 -24 43 -21 12 2 22 -1 22 -6 0
-7 31 -9 87 -5 143 9 783 12 783 4 0 -5 11 -8 25 -8 14 0 25 5 25 11 0 5 5 7
11 3 6 -3 26 2 45 12 26 14 44 37 70 88 18 38 34 77 34 87 0 23 10 29 57 33
21 3 51 9 66 15 15 6 31 10 35 8 25 -8 133 96 167 163 23 45 21 465 -3 539 -9
28 -20 51 -24 51 -5 0 -7 4 -4 9 3 4 -2 18 -12 29 -16 18 -20 19 -45 5z"/>
</g>
</svg>
